# xmcd
#
# Track frame offsets:
#	150
#	19986
#	43173
#	66175
#	92039
#	109441
#	130526
#	150224
#	164654
#
# Disc length: 2311 seconds
#
# Revision: 6
# Processed by: cddbd v1.5.2PL0 Copyright (c) Steve Scherf et al.
# Submitted via: audiograbber 1.83.01
#
DISCID=73090509
DTITLE=Foghat - The Complete Bearsville Albums Collection [CD 02) - Foghat (Roc
DTITLE=k And Roll) [remastered 2016]
DYEAR=1973
DGENRE=Rock
TTITLE0=Ride, Ride, Ride
TTITLE1=Feel So Bad
TTITLE2=Long Way To Go
TTITLE3=It's Too Late
TTITLE4=What A Shame
TTITLE5=Helping Hand
TTITLE6=Road Fever
TTITLE7=She's Gone
TTITLE8=Couldn't Make Her Stay
EXTD=
EXTT0=
EXTT1=
EXTT2=
EXTT3=
EXTT4=
EXTT5=
EXTT6=
EXTT7=
EXTT8=
PLAYORDER=
